<svg width="18" height="18" viewBox="0 0 24 24" fill="none" xmlns="http://www.w3.org/2000/svg">
<path d="M5.5 21C7.433 21 9 19.433 9 17.5C9 15.567 7.433 14 5.5 14C3.567 14 2 15.567 2 17.5C2 19.433 3.567 21 5.5 21Z" stroke="currentColor" stroke-width="2.533" stroke-linecap="round" stroke-linejoin="round"/>
<path d="M18.5 21C20.433 21 22 19.433 22 17.5C22 15.567 20.433 14 18.5 14C16.567 14 15 15.567 15 17.5C15 19.433 16.567 21 18.5 21Z" stroke="currentColor" stroke-width="2.533" stroke-linecap="round" stroke-linejoin="round"/>
<path d="M15.0001 5.90001C15.7733 5.90001 16.4001 5.2732 16.4001 4.50001C16.4001 3.72681 15.7733 3.10001 15.0001 3.10001C14.2269 3.10001 13.6001 3.72681 13.6001 4.50001C13.6001 5.2732 14.2269 5.90001 15.0001 5.90001Z" stroke="currentColor" stroke-width="2.533" stroke-linecap="round" stroke-linejoin="round"/>
<path d="M12 17.5L9 10L13 9L15 12H18" stroke="currentColor" stroke-width="2.533" stroke-linecap="round" stroke-linejoin="round"/>
<path d="M9 10L6.5 17.5" stroke="currentColor" stroke-width="2.533" stroke-linecap="round" stroke-linejoin="round"/>
</svg>
